<svg width="22" height="22" viewBox="0 0 22 22" fill="none" xmlns="http://www.w3.org/2000/svg">
<path d="M10.8176 20.6352C9.52834 20.6352 8.2517 20.3813 7.06057 19.8879C5.86945 19.3945 4.78716 18.6714 3.87551 17.7597C2.96386 16.8481 2.2407 15.7658 1.74732 14.5746C1.25394 13.3835 1 12.1069 1 10.8176C1 9.52834 1.25394 8.2517 1.74732 7.06057C2.2407 5.86945 2.96386 4.78716 3.87551 3.87551C4.78716 2.96386 5.86945 2.2407 7.06057 1.74732C8.2517 1.25394 9.52834 1 10.8176 1C13.4214 1 15.9185 2.03435 17.7597 3.87551C19.6009 5.71667 20.6352 8.21382 20.6352 10.8176C20.6352 13.4214 19.6009 15.9185 17.7597 17.7597C15.9185 19.6009 13.4214 20.6352 10.8176 20.6352ZM10.8176 20.6352V9.41509C10.8176 8.67115 11.1131 7.95768 11.6392 7.43164C12.1652 6.90559 12.8787 6.61006 13.6226 6.61006H14.3239M7.31132 12.2201H14.3239" stroke="#3B3535" stroke-width="1.40252"/>
</svg>
