<svg width="22" height="18" viewBox="0 0 22 18" fill="none" xmlns="http://www.w3.org/2000/svg">
<path d="M20.9198 0.96194C20.9198 0.96194 19.1509 2.00681 18.1674 2.3031C17.6395 1.69608 16.9378 1.26584 16.1574 1.07057C15.377 0.875299 14.5555 0.924418 13.8039 1.21128C13.0523 1.49815 12.4069 2.00892 11.9551 2.67451C11.5033 3.34011 11.2667 4.12841 11.2775 4.93281V5.80938C9.73706 5.84933 8.21063 5.50768 6.83418 4.81487C5.45773 4.12205 4.27398 3.09958 3.38837 1.83851C3.38837 1.83851 -0.117921 9.72766 7.77123 13.234C5.96595 14.4594 3.8154 15.0738 1.63522 14.9871C9.52437 19.37 19.1667 14.9871 19.1667 4.90652C19.1667 4.66283 19.1421 4.41914 19.0965 4.17896C19.9906 3.29713 20.9198 0.96194 20.9198 0.96194Z" stroke="#3B3535" stroke-width="1.31486" stroke-linecap="round" stroke-linejoin="round"/>
</svg>
